<?xml version="1.0" encoding="utf-8"?>
<!-- Generator: Adobe Illustrator 23.0.4, SVG Export Plug-In . SVG Version: 6.00 Build 0)  -->
<svg version="1.1" id="Layer_1" xmlns="http://www.w3.org/2000/svg" xmlns:xlink="http://www.w3.org/1999/xlink" x="0px" y="0px"
	 viewBox="0 0 77 193.4" style="enable-background:new 0 0 77 193.4;" xml:space="preserve">
<title>Artboard</title>
<desc>Created with Sketch.</desc>
<g>
	<g>
		<path d="M24.4,21.5l0-9.9c0-8.8-5-11.6-12-11.6S0.4,2.8,0.4,11.6l0,10.5l7.8,0l0-10.4c0-4,1.9-5.1,4.2-5.1c2.3,0,4.2,1.1,4.2,5.1
			l0,9c0,11.4-16.3,12.9-16.3,28.6l0,13.3l23.8,0l0-6.5l-16.2,0l0-6.2C7.9,37.4,24.4,36,24.4,21.5 M26.3,0.6l0,6.5l16.2,0L29.7,62.7
			l7.7,0L50,7.2l0-6.5L26.3,0.6z M53.1,0.6l0,6.5l16.2,0L56.4,62.7l7.7,0L76.7,7.2l0-6.5L53.1,0.6z"/>
	</g>
	<path d="M13.5,138.4h1l3.8,35.8l-8.7,0L13.5,138.4z M7.1,131.3L0,193.4l7.6,0l1.3-12.6l10.2,0l1.4,12.6l7.6,0l-7.1-62.1L7.1,131.3z
		 M47.9,131.3l-5.9,55h-1l-5.9-55l-7.6,0l7.1,62.1l13.8,0l7.1-62.1H47.9z M59.1,131.3l0,62.1l17.6,0l0-6.5l-9.9,0l0-21.3l9.7,0
		l0-6.5l-9.7,0l0-21.2l9.9,0l0-6.5L59.1,131.3z"/>
	<g>
		<path d="M14,87.3c-2.2,0-4.7,0.7-6,2.8l0-17.6l15.2,0l0-6.5l-22.9,0l0,36.6l7.8,0l0-3.4c0-4,2.1-5.2,4.2-5.2
			c2.2,0,4.2,1.1,4.2,5.2l0,17.5c0,4-2,5.2-4.2,5.2c-2.3,0-4.2-1.1-4.2-5.2l0-7.4l-7.8,0l0,7.6c0,8.8,4.9,11.6,11.9,11.6
			c7,0,11.9-2.8,11.9-11.6l0-18.1C24.1,90.2,19.3,87.3,14,87.3 M49.1,65.9l-23.6,0l0,6.5l7.9,0l0,55.5l7.8,0l0-55.5l7.9,0L49.1,65.9
			z M66.8,65.9l0,28.1l-8.6,0l0-28.1l-7.8,0l0,62.1h7.8l0-27.3l8.6,0l0,27.3l7.8,0l0-62.1L66.8,65.9z"/>
	</g>
</g>
</svg>
